<svg width="16" height="16" viewBox="0 0 16 16" fill="none" xmlns="http://www.w3.org/2000/svg">
    <g clip-path="url(#clip0_5_12558)">
        <path d="M7.64655 1.28249L1.28258 7.64645C1.08732 7.84171 1.08732 8.15829 1.28258 8.35355L7.64655 14.7175C7.84181 14.9128 8.15839 14.9128 8.35365 14.7175L14.7176 8.35355C14.9129 8.15829 14.9129 7.84171 14.7176 7.64645L8.35365 1.28249C8.15839 1.08722 7.84181 1.08722 7.64655 1.28249Z" stroke="white"/>
        <path d="M5 4.00024L8 1.00024V6.00024H3L5 4.00024Z" fill="white"/>
        <path d="M6 13.0002L3 10.0002H8V15.0002L6 13.0002Z" fill="white"/>
        <path d="M4.53551 6.82854V11.0712L0.999977 7.53564L4.53551 4.00011V6.82854Z" fill="white"/>
    </g>
    <defs>
        <clipPath id="clip0_5_12558">
            <rect width="16" height="16" fill="white"/>
        </clipPath>
    </defs>
</svg>
