<svg width="17" height="17" viewBox="0 0 17 17" fill="none" xmlns="http://www.w3.org/2000/svg">
    <path d="M10.2204 6.5699C10.3815 5.46527 10.7993 4.4138 11.4404 3.49991C11.4404 3.49991 11.4404 3.55991 11.4404 3.58991C11.4404 3.86573 11.55 4.13026 11.745 4.3253C11.94 4.52033 12.2046 4.62991 12.4804 4.62991C12.7562 4.62991 13.0207 4.52033 13.2158 4.3253C13.4108 4.13026 13.5204 3.86573 13.5204 3.58991C13.5208 3.40249 13.4685 3.21873 13.3694 3.0596C13.2704 2.90047 13.1287 2.77237 12.9604 2.68991H12.8704C12.3729 2.50961 11.8279 2.50961 11.3304 2.68991C9.71039 3.13991 9.08039 5.49991 9.08039 5.49991L8.90039 5.6199H5.90039L5.65039 6.6199H8.77039L7.77039 11.9199C7.61385 12.5161 7.29099 13.0555 6.83948 13.4751C6.38797 13.8948 5.82643 14.1773 5.22039 14.2899C5.28189 14.155 5.31264 14.0081 5.31039 13.8599C5.31039 13.5735 5.19661 13.2988 4.99407 13.0962C4.79153 12.8937 4.51682 12.7799 4.23039 12.7799C3.94396 12.7799 3.66925 12.8937 3.46672 13.0962C3.26418 13.2988 3.15039 13.5735 3.15039 13.8599C3.1615 14.105 3.25729 14.3386 3.42141 14.521C3.58553 14.7033 3.80783 14.8231 4.05039 14.8599C8.41039 15.6999 9.05039 11.9499 9.05039 11.9499L10.0504 7.55991H13.0504L13.3004 6.55991H10.1404L10.2204 6.5699Z" fill="white"/>
</svg>
