<svg width="16" height="16" viewBox="0 0 16 16" fill="none" xmlns="http://www.w3.org/2000/svg">
<mask id="path-1-outside-1_26_56" maskUnits="userSpaceOnUse" x="1" y="0" width="3" height="4" fill="black">
<rect fill="white" x="1" width="3" height="4"/>
<path d="M1 0H4V3H1V0Z"/>
</mask>
<path d="M1 0H4V3H1V0Z" fill="#FBFEFF"/>
<path d="M4 2H1V4H4V2Z" fill="#95A1A9" mask="url(#path-1-outside-1_26_56)"/>
<mask id="path-3-outside-2_26_56" maskUnits="userSpaceOnUse" x="5" y="0" width="3" height="4" fill="black">
<rect fill="white" x="5" width="3" height="4"/>
<path d="M5 0H8V3H5V0Z"/>
</mask>
<path d="M5 0H8V3H5V0Z" fill="#FBFEFF"/>
<path d="M8 2H5V4H8V2Z" fill="#95A1A9" mask="url(#path-3-outside-2_26_56)"/>
<mask id="path-5-outside-3_26_56" maskUnits="userSpaceOnUse" x="9" y="0" width="3" height="4" fill="black">
<rect fill="white" x="9" width="3" height="4"/>
<path d="M9 0H12V3H9V0Z"/>
</mask>
<path d="M9 0H12V3H9V0Z" fill="#FBFEFF"/>
<path d="M12 2H9V4H12V2Z" fill="#95A1A9" mask="url(#path-5-outside-3_26_56)"/>
<mask id="path-7-outside-4_26_56" maskUnits="userSpaceOnUse" x="7" y="4" width="3" height="4" fill="black">
<rect fill="white" x="7" y="4" width="3" height="4"/>
<path d="M7 4H10V7H7V4Z"/>
</mask>
<path d="M7 4H10V7H7V4Z" fill="#FBFEFF"/>
<path d="M10 6H7V8H10V6Z" fill="#95A1A9" mask="url(#path-7-outside-4_26_56)"/>
<mask id="path-9-outside-5_26_56" maskUnits="userSpaceOnUse" x="3" y="4" width="3" height="4" fill="black">
<rect fill="white" x="3" y="4" width="3" height="4"/>
<path d="M3 4H6V7H3V4Z"/>
</mask>
<path d="M3 4H6V7H3V4Z" fill="#FBFEFF"/>
<path d="M6 6H3V8H6V6Z" fill="#95A1A9" mask="url(#path-9-outside-5_26_56)"/>
<mask id="path-11-outside-6_26_56" maskUnits="userSpaceOnUse" x="0" y="8" width="3" height="4" fill="black">
<rect fill="white" y="8" width="3" height="4"/>
<path d="M0 8H3V11H0V8Z"/>
</mask>
<path d="M0 8H3V11H0V8Z" fill="#FBFEFF"/>
<path d="M3 10H0V12H3V10Z" fill="#95A1A9" mask="url(#path-11-outside-6_26_56)"/>
<mask id="path-13-outside-7_26_56" maskUnits="userSpaceOnUse" x="4" y="8" width="3" height="4" fill="black">
<rect fill="white" x="4" y="8" width="3" height="4"/>
<path d="M4 8H7V11H4V8Z"/>
</mask>
<path d="M4 8H7V11H4V8Z" fill="#FBFEFF"/>
<path d="M7 10H4V12H7V10Z" fill="#95A1A9" mask="url(#path-13-outside-7_26_56)"/>
<mask id="path-15-outside-8_26_56" maskUnits="userSpaceOnUse" x="8" y="8" width="3" height="4" fill="black">
<rect fill="white" x="8" y="8" width="3" height="4"/>
<path d="M8 8H11V11H8V8Z"/>
</mask>
<path d="M8 8H11V11H8V8Z" fill="#FBFEFF"/>
<path d="M11 10H8V12H11V10Z" fill="#95A1A9" mask="url(#path-15-outside-8_26_56)"/>
<mask id="path-17-outside-9_26_56" maskUnits="userSpaceOnUse" x="12" y="8" width="2" height="4" fill="black">
<rect fill="white" x="12" y="8" width="2" height="4"/>
<path d="M12 8H14V11H12V8Z"/>
</mask>
<path d="M12 8H14V11H12V8Z" fill="#FBFEFF"/>
<path d="M14 10H12V12H14V10Z" fill="#95A1A9" mask="url(#path-17-outside-9_26_56)"/>
<mask id="path-19-outside-10_26_56" maskUnits="userSpaceOnUse" x="9" y="12" width="3" height="3" fill="black">
<rect fill="white" x="9" y="12" width="3" height="3"/>
<path d="M9 12H12V14H9V12Z"/>
</mask>
<path d="M9 12H12V14H9V12Z" fill="#FBFEFF"/>
<path d="M12 13H9V15H12V13Z" fill="#95A1A9" mask="url(#path-19-outside-10_26_56)"/>
<mask id="path-21-outside-11_26_56" maskUnits="userSpaceOnUse" x="5" y="12" width="3" height="3" fill="black">
<rect fill="white" x="5" y="12" width="3" height="3"/>
<path d="M5 12H8V14H5V12Z"/>
</mask>
<path d="M5 12H8V14H5V12Z" fill="#FBFEFF"/>
<path d="M8 13H5V15H8V13Z" fill="#95A1A9" mask="url(#path-21-outside-11_26_56)"/>
<rect x="4" width="1" height="4" fill="#999999"/>
<rect x="8" width="1" height="4" fill="#999999"/>
<rect x="6" y="4" width="1" height="4" fill="#999999"/>
<rect x="7" y="8" width="1" height="4" fill="#999999"/>
<rect x="11" y="8" width="1" height="4" fill="#999999"/>
<rect x="3" y="8" width="1" height="4" fill="#999999"/>
<rect x="8" y="12" width="1" height="3" fill="#999999"/>
</svg>
