<svg width="16" height="16" viewBox="0 0 16 16" fill="none" xmlns="http://www.w3.org/2000/svg">
    <path d="M2.5 13.7929V2.20711C2.5 2.0745 2.55268 1.94732 2.64645 1.85355L2.85355 1.64645C2.94732 1.55268 3.0745 1.5 3.20711 1.5H7.29289C7.4255 1.5 7.55268 1.55268 7.64645 1.64645L13.3536 7.35355C13.4473 7.44732 13.5 7.5745 13.5 7.70711V8.29289C13.5 8.4255 13.4473 8.55268 13.3536 8.64645L7.64645 14.3536C7.55268 14.4473 7.4255 14.5 7.29289 14.5H3.20711C3.0745 14.5 2.94732 14.4473 2.85355 14.3536L2.64645 14.1464C2.55268 14.0527 2.5 13.9255 2.5 13.7929Z" stroke="white"/>
</svg>
